<svg xmlns="http://www.w3.org/2000/svg" width="94.931" height="88" viewBox="0 0 94.931 88">
  <g id="Ilustração_Beneficio_2" data-name="Ilustração Beneficio 2" transform="translate(0 -0.019)">
    <ellipse id="Elipse_7" data-name="Elipse 7" cx="47.021" cy="3.152" rx="47.021" ry="3.152" transform="translate(0 81.715)" fill="#3f3d56"/>
    <rect id="Retângulo_4" data-name="Retângulo 4" width="1.576" height="0.919" transform="translate(46.233 50.455)" fill="#3f3d56"/>
    <rect id="Retângulo_5" data-name="Retângulo 5" width="1.576" height="0.919" transform="translate(49.385 50.455)" fill="#3f3d56"/>
    <rect id="Retângulo_6" data-name="Retângulo 6" width="1.576" height="0.919" transform="translate(52.537 50.455)" fill="#3f3d56"/>
    <rect id="Retângulo_7" data-name="Retângulo 7" width="1.576" height="0.919" transform="translate(55.689 50.455)" fill="#3f3d56"/>
    <rect id="Retângulo_8" data-name="Retângulo 8" width="1.576" height="0.919" transform="translate(58.841 50.455)" fill="#3f3d56"/>
    <rect id="Retângulo_9" data-name="Retângulo 9" width="1.576" height="0.919" transform="translate(61.994 50.455)" fill="#3f3d56"/>
    <rect id="Retângulo_10" data-name="Retângulo 10" width="1.576" height="0.919" transform="translate(65.146 50.455)" fill="#3f3d56"/>
    <rect id="Retângulo_11" data-name="Retângulo 11" width="1.576" height="0.919" transform="translate(68.298 50.455)" fill="#3f3d56"/>
    <rect id="Retângulo_12" data-name="Retângulo 12" width="1.576" height="0.919" transform="translate(71.45 50.455)" fill="#3f3d56"/>
    <rect id="Retângulo_13" data-name="Retângulo 13" width="1.576" height="0.919" transform="translate(74.603 50.455)" fill="#3f3d56"/>
    <rect id="Retângulo_14" data-name="Retângulo 14" width="1.576" height="0.919" transform="translate(77.755 50.455)" fill="#3f3d56"/>
    <path id="Caminho_58" data-name="Caminho 58" d="M619.936,503.512a18.913,18.913,0,0,1-37.827,0Z" transform="translate(-536.993 -452.466)" fill="#3f3d56"/>
    <path id="Caminho_59" data-name="Caminho 59" d="M783.58,260.736l-12.031-35.862A18.9,18.9,0,0,1,795.5,236.789c.127.38.243.762.345,1.144A18.914,18.914,0,0,1,783.58,260.736Z" transform="translate(-701.551 -209.568)" fill="#3f3d56"/>
    <circle id="Elipse_8" data-name="Elipse 8" cx="2.364" cy="2.364" r="2.364" transform="translate(80.119 49.273)" fill="#3f3d56"/>
    <path id="Caminho_60" data-name="Caminho 60" d="M679.266,541.012a.657.657,0,0,0,0,1.313h11.3a.657.657,0,1,0,0-1.313Z" transform="translate(-620.818 -485.04)" fill="#fc0"/>
    <path id="Caminho_61" data-name="Caminho 61" d="M535.409,522.493l-2.352.087-8.473-18.222,2.144-1Z" transform="translate(-455.684 -437.232)" fill="#3f3d56"/>
    <path id="Caminho_62" data-name="Caminho 62" d="M368,522.493l2.352.087,8.473-18.222-2.144-1Z" transform="translate(-319.666 -437.232)" fill="#3f3d56"/>
    <rect id="Retângulo_15" data-name="Retângulo 15" width="19.439" height="1.313" transform="translate(54.376 74.754)" fill="#3f3d56"/>
    <path id="Caminho_63" data-name="Caminho 63" d="M771.3,226.294a.591.591,0,0,0-.565.764l.5,1.633a.591.591,0,0,0,1.131-.345l-.5-1.633A.592.592,0,0,0,771.3,226.294Z" transform="translate(-700.824 -211.658)" fill="#fc0"/>
    <path id="Caminho_64" data-name="Caminho 64" d="M572.2,506.012a.591.591,0,1,0,0,1.182h1.707a.591.591,0,0,0,0-1.182Z" transform="translate(-527.872 -454.637)" fill="#fc0"/>
    <path id="Caminho_65" data-name="Caminho 65" d="M624.54,473.012h-7.092c-.045,0-.088,0-.131.005a1.838,1.838,0,0,0,0,3.667c.045,0,.089.005.135.005h7.092a1.839,1.839,0,1,0,0-3.678Z" transform="translate(-566.092 -425.972)" fill="#ff6584"/>
    <path id="Caminho_66" data-name="Caminho 66" d="M622.814,476.544c1.208-.155,2.159-1.68,2.159-3.532h-.263c0,1.811-.943,3.284-2.1,3.284v.147Z" transform="translate(-572.173 -425.972)" opacity="0.2"/>
    <path id="Caminho_67" data-name="Caminho 67" d="M643.609,476.558V476.3c1.159,0,2.1-1.473,2.1-3.284h.263C645.973,474.967,644.913,476.558,643.609,476.558Z" transform="translate(-590.415 -425.972)" opacity="0.2"/>
    <path id="Caminho_68" data-name="Caminho 68" d="M664.609,476.558V476.3c1.159,0,2.1-1.473,2.1-3.284h.263C666.973,474.967,665.913,476.558,664.609,476.558Z" transform="translate(-608.657 -425.972)" opacity="0.2"/>
    <path id="Caminho_69" data-name="Caminho 69" d="M722.54,473.012h-7.092c-.045,0-.088,0-.131.005a1.838,1.838,0,0,0,0,3.667c.045,0,.089.005.135.005h7.092a1.839,1.839,0,1,0,0-3.678Z" transform="translate(-651.221 -425.972)" fill="#ff6584"/>
    <path id="Caminho_70" data-name="Caminho 70" d="M720.814,476.544c1.208-.155,2.159-1.68,2.159-3.532h-.263c0,1.811-.943,3.284-2.1,3.284v.147Z" transform="translate(-657.302 -425.972)" opacity="0.2"/>
    <path id="Caminho_71" data-name="Caminho 71" d="M741.609,476.558V476.3c1.159,0,2.1-1.473,2.1-3.284h.263C743.973,474.967,742.913,476.558,741.609,476.558Z" transform="translate(-675.544 -425.972)" opacity="0.2"/>
    <path id="Caminho_72" data-name="Caminho 72" d="M762.609,476.558V476.3c1.159,0,2.1-1.473,2.1-3.284h.263C764.973,474.967,763.913,476.558,762.609,476.558Z" transform="translate(-693.786 -425.972)" opacity="0.2"/>
    <path id="Caminho_73" data-name="Caminho 73" d="M661.179,337.3a1.942,1.942,0,0,0-2.542.934,3.277,3.277,0,0,0,.561,3.305,15.344,15.344,0,0,1,2.065,2.863A4.785,4.785,0,0,1,659.4,350.3c-.427.27-.033.953.4.68a5.6,5.6,0,0,0,2-7.3,7.809,7.809,0,0,0-1.026-1.449,5.042,5.042,0,0,1-1.587-2.827,1.78,1.78,0,0,1,.03-.436,1.533,1.533,0,0,1,.091-.292,1.426,1.426,0,0,1,.414-.517,1.26,1.26,0,0,1,.564-.255.845.845,0,0,1,.505.082C661.228,338.225,661.626,337.544,661.179,337.3Z" transform="translate(-603.251 -307.921)" fill="#e6e6e6"/>
    <path id="Caminho_74" data-name="Caminho 74" d="M752.117,374.133a2.3,2.3,0,0,0-2.3.534,1.4,1.4,0,0,0-.374,1.219,2.432,2.432,0,0,0,.7,1.244A18.2,18.2,0,0,1,752.22,379a2.346,2.346,0,0,1,.434,1.112,2.1,2.1,0,0,1-.192,1.051,3.865,3.865,0,0,1-2.033,1.724.4.4,0,0,0-.141.539.4.4,0,0,0,.539.141c1.542-.656,2.97-2.124,2.544-3.929a4.108,4.108,0,0,0-1.648-2.2,9.237,9.237,0,0,1-1.037-.885,1.375,1.375,0,0,1-.474-1.009.558.558,0,0,1,.177-.332,1.528,1.528,0,0,1,.39-.259,1.468,1.468,0,0,1,1.129-.059.4.4,0,0,0,.485-.275.4.4,0,0,0-.275-.485Z" transform="translate(-682.331 -339.983)" fill="#e6e6e6"/>
    <path id="Caminho_75" data-name="Caminho 75" d="M705.217,287.374a1.352,1.352,0,0,0-.84-.323,1.484,1.484,0,0,0-.818.264,2.816,2.816,0,0,0-1.084,1.624,6.406,6.406,0,0,0,.843,4.513c.365.679.79,1.324,1.157,2a8.882,8.882,0,0,1,.809,2.054,9.928,9.928,0,0,1,.1,4.482,7.347,7.347,0,0,1-2.107,3.954.394.394,0,0,0,.557.557,7.71,7.71,0,0,0,2.076-3.417,10.476,10.476,0,0,0,.383-4.452,10.206,10.206,0,0,0-.505-2.183,12.058,12.058,0,0,0-1-2.046,9.366,9.366,0,0,1-1.636-4.01,3.014,3.014,0,0,1,.493-2.087c-.025.032.02-.023.02-.024q.041-.049.086-.1a1.739,1.739,0,0,1,.181-.169c-.014.011-.049.034.015-.01.032-.022.064-.043.1-.062s.055-.03.082-.044l.05-.024q-.057.025.006,0c.031-.01.183-.043.1-.032a.787.787,0,0,1,.085-.006c.012,0,.118.005.066,0s.048.011.049.011a.777.777,0,0,1,.1.032c-.082-.033.134.089.084.05a.407.407,0,0,0,.557,0,.4.4,0,0,0,0-.557Z" transform="translate(-641.43 -264.435)" fill="#e6e6e6"/>
    <path id="Caminho_76" data-name="Caminho 76" d="M199.554,460.2l-2.971.788-5.456-25.221,6.123-.546Z" transform="translate(-166.024 -378.045)" fill="#ffb9b9"/>
    <path id="Caminho_77" data-name="Caminho 77" d="M114.041,461.645,111,462.1l-2.671-25.666,6.146.126Z" transform="translate(-94.103 -379.099)" fill="#ffb9b9"/>
    <path id="Caminho_78" data-name="Caminho 78" d="M332.79,315.321l.281,5.238a1.345,1.345,0,0,1-1.465,1.411h0a1.345,1.345,0,0,1-1.218-1.222l-.508-5.791-4-13.58.121-8.73,4.729.242Z" transform="translate(-314.416 -269.296)" fill="#ffb9b9"/>
    <path id="Caminho_79" data-name="Caminho 79" d="M343.356,466.907a16.867,16.867,0,0,0-8.245-.485,107.242,107.242,0,0,0,.485-14.065h16.127Z" transform="translate(-322.436 -408.029)" fill="#2f2e41"/>
    <path id="Caminho_80" data-name="Caminho 80" d="M383.5,467.588c-2.441,1.292-5.973,1.91-10.064,2.183l-5.093-16.248,12.489-.242Z" transform="translate(-351.305 -408.831)" fill="#2f2e41"/>
    <path id="Caminho_81" data-name="Caminho 81" d="M466.43,723.978l-8.785.325c-1.125.042-1.185-.925-.972-2.031l1.04-2.97c2.342,2.294,2.562,2.422,3.566-.841l3.064,2.42,2.268.389a1.364,1.364,0,0,1,1.134,1.347h0A1.364,1.364,0,0,1,466.43,723.978Z" transform="translate(-427.947 -639.183)" fill="#2f2e41"/>
    <path id="Caminho_82" data-name="Caminho 82" d="M365.12,723.978l-8.785.325c-1.125.042-1.185-.925-.972-2.031l1.04-2.97c2.342,2.294,2.562,2.422,3.566-.841l3.064,2.42,2.268.389a1.364,1.364,0,0,1,1.134,1.347h0A1.364,1.364,0,0,1,365.12,723.978Z" transform="translate(-339.943 -639.183)" fill="#2f2e41"/>
    <circle id="Elipse_9" data-name="Elipse 9" cx="4.729" cy="4.729" r="4.729" transform="translate(22.496 1.04)" fill="#ffb9b9"/>
    <path id="Caminho_83" data-name="Caminho 83" d="M151.931,59.38l-5.578-1.7,3.759-5.578,4.244,1.819Z" transform="translate(-127.131 -45.245)" fill="#ffb9b9"/>
    <path id="Caminho_84" data-name="Caminho 84" d="M345.43,236.778a37.356,37.356,0,0,1-17.582-.728,59.678,59.678,0,0,0-.606-21.583c-1.006-5.007,1.648-9.208,6.063-11.277a12.3,12.3,0,0,1,2.939-.662,5.722,5.722,0,0,1,6.145,5.14Z" transform="translate(-315.416 -190.996)" fill="#fc0"/>
    <path id="Caminho_85" data-name="Caminho 85" d="M88.5,152.137l-4-.485,1.213-6.305H88.5Z" transform="translate(-73.402 -126.24)" fill="#fc0"/>
    <path id="Caminho_86" data-name="Caminho 86" d="M406.047,121.506l-.724-.322a1.238,1.238,0,0,0-1.7.82h0l-1.01,1.824-2.515-.4.088-3.862a5.4,5.4,0,0,1,6.517-4.43l.069.016a7.811,7.811,0,0,1,3.653,2.125l1.55,1.763a.609.609,0,0,1-.39,1.007l-2.12.234Z" transform="translate(-378.888 -114.988)" fill="#2f2e41"/>
    <path id="Caminho_87" data-name="Caminho 87" d="M443.689,391.413l-2.715,2.382a.2.2,0,0,1-.26-.3l2.715-2.382-.52-.592-2.715,2.382a.2.2,0,0,1-.26-.3l2.715-2.382-.52-.592-2.715,2.382a.2.2,0,0,1-.26-.3l2.715-2.382-.65-.741-3.837,3.366a1.989,1.989,0,0,0-.423,2.467l-11.585,10.162,1.039,1.185,11.578-10.155a1.926,1.926,0,0,0,2.462-.063l3.884-3.407Z" transform="translate(-400.845 -352.646)" fill="#e6e6e6"/>
    <path id="Caminho_88" data-name="Caminho 88" d="M418.646,315.321l.281,5.238a1.345,1.345,0,0,1-1.465,1.411h0a1.345,1.345,0,0,1-1.218-1.222l-.508-5.791-4-13.58.121-8.73,4.729.242Z" transform="translate(-388.996 -269.296)" fill="#ffb9b9"/>
    <path id="Caminho_89" data-name="Caminho 89" d="M415.344,236.484c-1.439-1.38-3.338-1.431-5.456-.849v-6.516a2.941,2.941,0,0,1,2.941-2.941h0a2.693,2.693,0,0,1,2.693,2.757Z" transform="translate(-387.392 -211.557)" fill="#fc0"/>
  </g>
</svg>
