<svg xmlns="http://www.w3.org/2000/svg" xmlns:xlink="http://www.w3.org/1999/xlink" width="121.028" height="88" viewBox="0 0 121.028 88">
  <defs>
    <linearGradient id="linear-gradient" x1="0.5" y1="1" x2="0.5" gradientUnits="objectBoundingBox">
      <stop offset="0" stop-color="gray" stop-opacity="0.251"/>
      <stop offset="0.54" stop-color="gray" stop-opacity="0.122"/>
      <stop offset="1" stop-color="gray" stop-opacity="0.102"/>
    </linearGradient>
    <linearGradient id="linear-gradient-2" x1="0.5" y1="1" x2="0.5" y2="0" xlink:href="#linear-gradient"/>
  </defs>
  <g id="Ilustração_do_Benefício_3" data-name="Ilustração do Benefício 3" transform="translate(-0.004 0)">
    <ellipse id="Elipse_10" data-name="Elipse 10" cx="6.026" cy="2.143" rx="6.026" ry="2.143" transform="translate(2.53 66.765)" opacity="0.1"/>
    <ellipse id="Elipse_11" data-name="Elipse 11" cx="6.026" cy="2.143" rx="6.026" ry="2.143" transform="translate(99.882 75.623)" opacity="0.1"/>
    <path id="Caminho_90" data-name="Caminho 90" d="M242.318,123.9a40.239,40.239,0,0,1-28.344.372c-13.086-4.724-30.176-5.934-36.509,15.716-10.808,36.988,11.3,50.191,11.3,50.191s15.437,3.46,23.985,9.713c12.142,8.881,27.012,11.85,41.019,7.685,8.957-2.664,16.635-7.033,18.829-14.183,6.139-20,2.242-32.015,13.351-37.287s4.928-24.8-2.973-25.247-26.515,4.087-32.273-4.924C248.655,122.736,245.514,122.662,242.318,123.9Z" transform="translate(-170.954 -121.43)" opacity="0.1"/>
    <path id="Caminho_91" data-name="Caminho 91" d="M929.619,591.508s1.607-5.469-.3-9.494a8.639,8.639,0,0,1-.7-5.419,14.523,14.523,0,0,1,.767-2.544" transform="translate(-823.954 -513.438)" fill="none" stroke="#535461" stroke-width="2"/>
    <path id="Caminho_92" data-name="Caminho 92" d="M926.5,547.209a9.631,9.631,0,0,0,1.213,2.614,9.611,9.611,0,0,0,1.213-2.614,1.214,1.214,0,0,0-2.428,0Z" transform="translate(-822.26 -489.14)" fill="#fc0"/>
    <path id="Caminho_93" data-name="Caminho 93" d="M910.277,570.676a9.625,9.625,0,0,0,2.44,1.535,9.616,9.616,0,0,0-.4-2.854,1.213,1.213,0,1,0-2.037,1.319Z" transform="translate(-808.042 -508.894)" fill="#fc0"/>
    <path id="Caminho_94" data-name="Caminho 94" d="M907.865,615.3a9.638,9.638,0,0,0,2.88.094,9.607,9.607,0,0,0-1.788-2.26,1.213,1.213,0,1,0-1.093,2.167Z" transform="translate(-805.543 -547.179)" fill="#fc0"/>
    <path id="Caminho_95" data-name="Caminho 95" d="M917.569,651.741a9.493,9.493,0,0,0,2.823.578,9.615,9.615,0,0,0-1.379-2.53,1.214,1.214,0,1,0-1.444,1.951Z" transform="translate(-814.099 -578.83)" fill="#fc0"/>
    <path id="Caminho_96" data-name="Caminho 96" d="M931.171,581.741a9.609,9.609,0,0,1-2.721.951A9.628,9.628,0,0,1,929.48,580a1.214,1.214,0,1,1,1.691,1.741Z" transform="translate(-823.949 -518.295)" fill="#fc0"/>
    <path id="Caminho_97" data-name="Caminho 97" d="M939.63,622.318a9.637,9.637,0,0,1-2.88.094,9.466,9.466,0,0,1,1.788-2.254,1.213,1.213,0,1,1,1.093,2.167Z" transform="translate(-831.138 -553.259)" fill="#fc0"/>
    <path id="Caminho_98" data-name="Caminho 98" d="M943.633,664.981a9.493,9.493,0,0,1-2.823.578,9.616,9.616,0,0,1,1.379-2.53,1.214,1.214,0,0,1,1.444,1.951Z" transform="translate(-834.654 -590.297)" fill="#fc0"/>
    <path id="Caminho_99" data-name="Caminho 99" d="M195.948,395.149s3.44-11.667-.643-20.264a18.469,18.469,0,0,1-1.49-11.566,31,31,0,0,1,1.638-5.429" transform="translate(-187.389 -326.225)" fill="none" stroke="#535461" stroke-width="2"/>
    <path id="Caminho_100" data-name="Caminho 100" d="M189.321,300.59c0,1.43,2.59,5.579,2.59,5.579s2.589-4.151,2.589-5.579a2.59,2.59,0,1,0-5.18,0Z" transform="translate(-183.798 -274.355)" fill="#fc0"/>
    <path id="Caminho_101" data-name="Caminho 101" d="M154.884,350.98c.778,1.205,5.207,3.276,5.207,3.276s-.08-4.891-.858-6.09a2.59,2.59,0,0,0-4.348,2.812Z" transform="translate(-153.642 -316.822)" fill="#fc0"/>
    <path id="Caminho_102" data-name="Caminho 102" d="M149.538,445.943c1.278.644,6.148.2,6.148.2s-2.544-4.181-3.815-4.821a2.59,2.59,0,0,0-2.333,4.625Z" transform="translate(-148.11 -398.243)" fill="#fc0"/>
    <path id="Caminho_103" data-name="Caminho 103" d="M170.208,523.681c1.15.85,6.026,1.235,6.026,1.235s-1.794-4.553-2.946-5.4a2.59,2.59,0,0,0-3.08,4.165Z" transform="translate(-166.336 -465.767)" fill="#fc0"/>
    <path id="Caminho_104" data-name="Caminho 104" d="M199.3,374.217c-1.026,1-5.806,2.029-5.806,2.029s1.17-4.749,2.2-5.745a2.592,2.592,0,1,1,3.616,3.716Z" transform="translate(-187.41 -336.511)" fill="#fc0"/>
    <path id="Caminho_105" data-name="Caminho 105" d="M217.338,460.823c-1.278.644-6.148.2-6.148.2s2.544-4.181,3.815-4.821a2.59,2.59,0,0,1,2.333,4.625Z" transform="translate(-202.74 -411.131)" fill="#fc0"/>
    <path id="Caminho_106" data-name="Caminho 106" d="M225.876,551.951c-1.15.85-6.026,1.235-6.026,1.235s1.794-4.553,2.946-5.4a2.59,2.59,0,0,1,3.08,4.165Z" transform="translate(-210.24 -490.252)" fill="#fc0"/>
    <path id="Caminho_107" data-name="Caminho 107" d="M475.579,412.547l-7.463-.967c-.3-.039-.536-.154-.528-.254h0c.013-.1.268-.147.577-.1l7.447,1.078c.2.029.36.107.351.175h0C475.954,412.54,475.783,412.573,475.579,412.547Z" transform="translate(-424.803 -372.401)" fill="#fc0"/>
    <path id="Caminho_108" data-name="Caminho 108" d="M475.5,417.11l-7.486-.774c-.3-.031-.562.025-.572.126h0c-.009.1.233.206.536.233l7.5.67c.206.019.375-.021.382-.09h0C475.86,417.2,475.7,417.131,475.5,417.11Z" transform="translate(-424.673 -376.836)" fill="#fc0"/>
    <path id="Caminho_109" data-name="Caminho 109" d="M608.973,455.547l7.462-.967c.3-.039.536-.154.528-.254h0c-.013-.1-.268-.147-.577-.1l-7.447,1.078c-.2.029-.36.107-.351.175h0C608.6,455.54,608.768,455.573,608.973,455.547Z" transform="translate(-546.92 -409.643)" fill="#fc0"/>
    <path id="Caminho_110" data-name="Caminho 110" d="M608.788,460.11l7.486-.774c.3-.031.562.025.572.126h0c.009.1-.233.206-.536.233l-7.5.67c-.206.019-.375-.021-.382-.09h0C608.424,460.2,608.583,460.131,608.788,460.11Z" transform="translate(-546.783 -414.078)" fill="#fc0"/>
    <rect id="Retângulo_16" data-name="Retângulo 16" width="1.82" height="26.094" transform="translate(35.549 53.919)" fill="#40414d"/>
    <rect id="Retângulo_17" data-name="Retângulo 17" width="1.82" height="26.094" transform="translate(75.297 53.919)" fill="#40414d"/>
    <path id="Caminho_111" data-name="Caminho 111" d="M241.2,386.78h42.049a2.946,2.946,0,0,1,2.946,2.946v.391H238.25v-.391A2.946,2.946,0,0,1,241.2,386.78Z" transform="translate(-206.342 -334.985)" fill="#dfe6f5"/>
    <path id="Caminho_112" data-name="Caminho 112" d="M240.2,386.78h42.049a2.946,2.946,0,0,1,2.946,2.946v.391H237.25v-.391A2.946,2.946,0,0,1,240.2,386.78Z" transform="translate(-205.476 -334.985)" opacity="0.1"/>
    <path id="Caminho_113" data-name="Caminho 113" d="M241.2,382.24h42.049a2.946,2.946,0,0,1,2.946,2.946v.391H238.25v-.391A2.946,2.946,0,0,1,241.2,382.24Z" transform="translate(-206.342 -331.053)" fill="#dfe6f5"/>
    <circle id="Elipse_12" data-name="Elipse 12" cx="3.641" cy="3.641" r="3.641" transform="translate(52.237 41.781)" fill="#ffd77c" stroke="#ffab50" stroke-width="1"/>
    <circle id="Elipse_13" data-name="Elipse 13" cx="2.886" cy="2.886" r="2.886" transform="translate(52.993 42.536)" fill="#ffd77c" stroke="#ffab50" stroke-width="1"/>
    <circle id="Elipse_14" data-name="Elipse 14" cx="2.199" cy="2.199" r="2.199" transform="translate(53.68 43.223)" fill="#ffd77c" stroke="#ffab50" stroke-width="1"/>
    <circle id="Elipse_15" data-name="Elipse 15" cx="1.236" cy="1.236" r="1.236" transform="translate(54.642 44.186)" fill="#ffd77c" stroke="#ffab50" stroke-width="1"/>
    <circle id="Elipse_16" data-name="Elipse 16" cx="3.641" cy="3.641" r="3.641" transform="translate(50.113 43.753)" fill="#ffd77c" stroke="#ffab50" stroke-width="1"/>
    <circle id="Elipse_17" data-name="Elipse 17" cx="2.886" cy="2.886" r="2.886" transform="translate(50.869 44.509)" fill="#ffd77c" stroke="#ffab50" stroke-width="1"/>
    <circle id="Elipse_18" data-name="Elipse 18" cx="2.199" cy="2.199" r="2.199" transform="translate(51.556 45.196)" fill="#ffd77c" stroke="#ffab50" stroke-width="1"/>
    <circle id="Elipse_19" data-name="Elipse 19" cx="1.236" cy="1.236" r="1.236" transform="translate(52.519 46.159)" fill="#ffd77c" stroke="#ffab50" stroke-width="1"/>
    <circle id="Elipse_20" data-name="Elipse 20" cx="3.641" cy="3.641" r="3.641" transform="translate(54.361 43.753)" fill="#ffd77c" stroke="#ffab50" stroke-width="1"/>
    <circle id="Elipse_21" data-name="Elipse 21" cx="2.886" cy="2.886" r="2.886" transform="translate(55.116 44.509)" fill="#ffd77c" stroke="#ffab50" stroke-width="1"/>
    <circle id="Elipse_22" data-name="Elipse 22" cx="2.199" cy="2.199" r="2.199" transform="translate(55.803 45.196)" fill="#ffd77c" stroke="#ffab50" stroke-width="1"/>
    <circle id="Elipse_23" data-name="Elipse 23" cx="1.236" cy="1.236" r="1.236" transform="translate(56.766 46.159)" fill="#ffd77c" stroke="#ffab50" stroke-width="1"/>
    <path id="Caminho_114" data-name="Caminho 114" d="M360.6,346h15.171v.712a5.357,5.357,0,0,1-5.357,5.357h-4.458a5.357,5.357,0,0,1-5.357-5.357Z" transform="translate(-312.308 -299.666)" fill="#fc0"/>
    <path id="Caminho_115" data-name="Caminho 115" d="M553.077,467.42a6.068,6.068,0,0,1-6.065,5.916H544a6.081,6.081,0,0,0,1.339.153h3.034a6.069,6.069,0,0,0,6.072-6.069Z" transform="translate(-490.982 -421.087)" opacity="0.1"/>
    <rect id="Retângulo_18" data-name="Retângulo 18" width="1.82" height="39.445" transform="translate(76.208 73.793) rotate(90)" fill="#40414d"/>
    <rect id="Retângulo_19" data-name="Retângulo 19" width="1.592" height="14.487" transform="translate(20.381 67.437)" fill="#40414d"/>
    <rect id="Retângulo_20" data-name="Retângulo 20" width="1.592" height="14.487" transform="translate(32.957 67.437)" fill="#40414d"/>
    <path id="Caminho_116" data-name="Caminho 116" d="M321.915,595.862c0,.967-3.278,1.752-7.322,1.752s-7.163-.783-7.163-1.752,3.119-1.752,7.163-1.752S321.915,594.9,321.915,595.862Z" transform="translate(-286.092 -530.812)" fill="#f6c6cd"/>
    <path id="Caminho_117" data-name="Caminho 117" d="M142.66,485.75h16.715v1.46a1.406,1.406,0,0,1-1.406,1.406h-12.9a2.41,2.41,0,0,1-2.41-2.41Z" transform="translate(-123.553 -420.702)" fill="#40414d"/>
    <path id="Caminho_118" data-name="Caminho 118" d="M.94,0h.354a.937.937,0,0,1,.937.937V19.9H1.7A1.7,1.7,0,0,1,0,18.2V.937A.937.937,0,0,1,.94,0Z" transform="translate(15.352 48.506) rotate(-12.72)" fill="#40414d"/>
    <rect id="Retângulo_21" data-name="Retângulo 21" width="1.592" height="14.487" transform="translate(91.643 82.181) rotate(180)" fill="#40414d"/>
    <rect id="Retângulo_22" data-name="Retângulo 22" width="1.592" height="14.487" transform="translate(79.067 82.181) rotate(180)" fill="#40414d"/>
    <path id="Caminho_119" data-name="Caminho 119" d="M717.13,597.756c0,.967,3.278,1.752,7.322,1.752s7.163-.783,7.163-1.752S728.5,596,724.452,596,717.13,596.789,717.13,597.756Z" transform="translate(-640.928 -532.449)" fill="#f6c6cd"/>
    <path id="Caminho_120" data-name="Caminho 120" d="M2.41,0h12.9a1.406,1.406,0,0,1,1.406,1.406v1.46H0V2.41A2.41,2.41,0,0,1,2.41,0Z" transform="translate(92.916 68.172) rotate(180)" fill="#40414d"/>
    <path id="Caminho_121" data-name="Caminho 121" d="M1.693,0h.536V18.962a.937.937,0,0,1-.937.937H.937A.937.937,0,0,1,0,18.962V1.7A1.7,1.7,0,0,1,1.693,0Z" transform="translate(92.29 68.17) rotate(-167.28)" fill="#40414d"/>
    <path id="Caminho_122" data-name="Caminho 122" d="M664.778,341.973l.47-.149a79.577,79.577,0,0,1-.8-10.177v-.415c.009-.3.02-.6.035-.888.019-.372.023-.727.02-1.071.044-4.632-1.781-6.589-1.781-6.589s-2.143-3.056-3.427-3.65c-.111-.348-.238-.8-.351-1.315.042-.028.082-.056.12-.086a17.342,17.342,0,0,0,1.52-1.268,3.149,3.149,0,0,0,1.256-2.219,1.63,1.63,0,0,0-.008-.248c-.122-1.024-1.186-1.8-1.616-2.767-.362-.816-.253-1.723-.569-2.551s-1.419-1.6-2.252-1.162a4.442,4.442,0,0,0-.747.66,2.842,2.842,0,0,1-2.526.341c-.868-.244-1.125-1.237-2.338-1.24a1.411,1.411,0,0,1,.307.146,1.93,1.93,0,0,0-.307-.027,1.339,1.339,0,0,1,.927,1.126.929.929,0,0,1-.011.1,3.567,3.567,0,0,1-1.7.1c-.581-.009-1.243.284-1.185.759a.459.459,0,0,0,0,.163c.076.36.558.632.617.966v.027a10.01,10.01,0,0,1-3.435,1c-.039,0-.021.047.035.115H647c-.218.023,1.308,1.229,1.482,1.308a21.317,21.317,0,0,0,2.074.724l.059.019a4.224,4.224,0,0,0-.344,1.673,4.471,4.471,0,0,0,3.49,4.285c.375.438.769.919,1.128,1.4h-.025a14.543,14.543,0,0,0-2.143,9.373,13.9,13.9,0,0,1-7.1-2.251c-3.271-2.393-6.921-1.675-6.16-.24s4.656,2.631,5.284,2.752c.059.011.2.043.391.091-.774.146-1.3.4-1.272.746.063.658,3.4,2.752,5.41,2.871a21.168,21.168,0,0,1,4.193.849c.122,2.752-.544,3.577-.544,3.577s.2.122.526.295l-.141.4a10.226,10.226,0,0,1-2.74,1.161,15.051,15.051,0,0,0-3.38,1.125L642.66,344a2.623,2.623,0,0,0-1.5,2.061,3.015,3.015,0,0,0,1.7,3.008,3.528,3.528,0,0,0,1.764,2.44c2.344,1.559,8.5,6.228,9.34,6.866.016,1.14-.134,3.425-1.54,3.782-1.762.447-.344,2.143,1.081,2.076a1.867,1.867,0,0,0,1.059.078c1.511-.359,7.047-2.276,7.424-5.145a2.75,2.75,0,0,0,.021-.375,2.5,2.5,0,0,0-.351-1.394,2.507,2.507,0,0,1,.143.4,4.522,4.522,0,0,0-2.441-2.07V355.7c-.134-.052-.268-.1-.378-.134a1.125,1.125,0,0,0-.017-.232l-8.682-5.982s3.775-3.111,7.676-2.631,4.522-.229,4.522-.229a7.673,7.673,0,0,0,2.2-4.094l.126-.033S664.8,342.226,664.778,341.973Z" transform="translate(-573.572 -282.306)" fill="url(#linear-gradient)"/>
    <path id="Caminho_123" data-name="Caminho 123" d="M735.825,667.258s.355,3.906-1.421,4.38-.118,2.368,1.3,2.009,6.63-2.25,6.985-5.089-3.551-3.788-3.551-3.788Z" transform="translate(-655.221 -592.01)" fill="#b8616e"/>
    <path id="Caminho_124" data-name="Caminho 124" d="M735.825,667.258s.355,3.906-1.421,4.38-.118,2.368,1.3,2.009,6.63-2.25,6.985-5.089-3.551-3.788-3.551-3.788Z" transform="translate(-655.221 -592.01)" opacity="0.05"/>
    <path id="Caminho_125" data-name="Caminho 125" d="M741.155,668.138s.355,3.906-1.421,4.38-.118,2.368,1.3,2.009,6.63-2.25,6.985-5.089-3.551-3.788-3.551-3.788Z" transform="translate(-659.837 -592.772)" fill="#b8616e"/>
    <path id="Caminho_126" data-name="Caminho 126" d="M761.312,666.55,758,669.037s.015.169.024.438c1.251-.343,3.976-1.253,4.017-2.678A6.419,6.419,0,0,0,761.312,666.55Z" transform="translate(-676.325 -593.551)" opacity="0.1"/>
    <rect id="Retângulo_23" data-name="Retângulo 23" width="1.421" height="1.066" transform="translate(81.495 38.962)" fill="#f8bdc5"/>
    <path id="Caminho_127" data-name="Caminho 127" d="M673.145,541a13.274,13.274,0,0,1-4.11,2.193,13.682,13.682,0,0,0-3.18,1.113l-4.262,2.167a2.59,2.59,0,0,0-1.411,2.039c-.122,1.205.363,2.791,3.255,3.734l9.115,7.577,2.842-2.368L665.686,550l7.459-4.617Z" transform="translate(-591.59 -484.814)" fill="#758ac8"/>
    <path id="Caminho_128" data-name="Caminho 128" d="M673.145,541a13.274,13.274,0,0,1-4.11,2.193,13.682,13.682,0,0,0-3.18,1.113l-4.262,2.167a2.59,2.59,0,0,0-1.411,2.039c-.122,1.205.363,2.791,3.255,3.734l9.115,7.577,2.842-2.368L665.686,550l7.459-4.617Z" transform="translate(-591.59 -484.814)" opacity="0.1"/>
    <path id="Caminho_129" data-name="Caminho 129" d="M661,457.24s-4.38.118-7.459-2.25-6.511-1.658-5.8-.237,4.38,2.6,4.972,2.722,9.115,2.487,9.115,2.487Z" transform="translate(-580.749 -408.984)" fill="#f8bdc5"/>
    <path id="Caminho_130" data-name="Caminho 130" d="M661,457.24s-4.38.118-7.459-2.25-6.511-1.658-5.8-.237,4.38,2.6,4.972,2.722,9.115,2.487,9.115,2.487Z" transform="translate(-580.749 -408.984)" opacity="0.05"/>
    <path id="Caminho_131" data-name="Caminho 131" d="M682.626,533.06l-1.421,4.262s-7.991,4.913-8.643,5.564c-.506.506-1.184,2.487,1.184,4.143s8.878,6.867,8.878,6.867,4.972-1.071,4.617-3.08l-8.169-5.919s3.551-3.08,7.222-2.6,4.262-.237,4.262-.237,2.842-2.844,1.894-5.563S682.626,533.06,682.626,533.06Z" transform="translate(-601.9 -477.937)" fill="#758ac8"/>
    <path id="Caminho_132" data-name="Caminho 132" d="M737.65,366.023s4.025,4.38,3.788,5.682,3.2-3.788,3.2-3.788a13.168,13.168,0,0,1-.829-5.446Z" transform="translate(-658.7 -330.192)" fill="#f8bdc5"/>
    <path id="Caminho_133" data-name="Caminho 133" d="M743.981,401.9a11.751,11.751,0,0,1,.866-.826,12.011,12.011,0,0,0,1.659-1.656c.829-1.071,3.906,3.551,3.906,3.551s1.893,2.131,1.658,7.222a117.071,117.071,0,0,0,.3,11.9l-.716.2a4.1,4.1,0,0,1-3.629-.516,7.256,7.256,0,0,0-3.053-1.4,8.252,8.252,0,0,1-3.375-1.125s.77-1.835-.414-7.755a13.824,13.824,0,0,1,1.833-10.128S743.251,402.653,743.981,401.9Z" transform="translate(-661.518 -362.052)" opacity="0.1"/>
    <path id="Caminho_134" data-name="Caminho 134" d="M752.816,419.243l-.71.237-.422.141a4.1,4.1,0,0,1-3.629-.516A7.267,7.267,0,0,0,745,417.7a9.682,9.682,0,0,1-3.782-1.421s1.184-1.539,0-7.459a13.8,13.8,0,0,1,1.835-10.122s.238,1.282.968.528a11.627,11.627,0,0,1,.865-.825,12.011,12.011,0,0,0,1.659-1.656c.829-1.071,3.906,3.551,3.906,3.551s1.893,2.131,1.658,7.222c-.025.536-.036,1.087-.038,1.646A81.214,81.214,0,0,0,752.816,419.243Z" transform="translate(-661.553 -359.74)" fill="#fc0"/>
    <path id="Caminho_135" data-name="Caminho 135" d="M729.535,474.531l.118,2.6s-6.275.355-7.577-.947,3.549,3.829,4.62,4.143a26.952,26.952,0,0,0,4.964.584,2.009,2.009,0,0,0,1.875-1.137,1.894,1.894,0,0,0,.147-1.1,31.32,31.32,0,0,1,0-4.854Z" transform="translate(-645.021 -426.63)" opacity="0.1"/>
    <path id="Caminho_136" data-name="Caminho 136" d="M692.669,472.761l.118,2.6s-6.275.355-7.577-.947-6.011-1.014-5.919,0c.059.651,3.2,2.722,5.089,2.842a27.276,27.276,0,0,1,5.45,1.3,26.952,26.952,0,0,0,4.964.584,2.009,2.009,0,0,0,1.875-1.137,1.9,1.9,0,0,0,.147-1.1,31.32,31.32,0,0,1,0-4.854Z" transform="translate(-608.155 -425.097)" fill="#f8bdc5"/>
    <path id="Caminho_137" data-name="Caminho 137" d="M774.291,420.763s-2.722.355-2.368,4.38.829,4.38.829,4.38,4.025-.355,4.5-.474.237-4.5.237-4.5S777.369,420.645,774.291,420.763Z" transform="translate(-688.356 -380.676)" opacity="0.1"/>
    <path id="Caminho_138" data-name="Caminho 138" d="M774.291,419.882s-2.722.355-2.368,4.38.829,4.38.829,4.38,4.025-.355,4.5-.474.237-4.5.237-4.5S777.369,419.762,774.291,419.882Z" transform="translate(-688.356 -379.913)" fill="#fc0"/>
    <path id="Caminho_139" data-name="Caminho 139" d="M744.364,365.747c-.186-.937.2-1.227.3-2.427l-6.16,3.551s.706.769,1.508,1.756a4.389,4.389,0,0,0,1.1.134C742.718,368.768,743.6,367.035,744.364,365.747Z" transform="translate(-659.436 -330.928)" opacity="0.1"/>
    <circle id="Elipse_24" data-name="Elipse 24" cx="4.38" cy="4.38" r="4.38" transform="translate(77.173 28.959)" fill="#f8bdc5"/>
    <path id="Caminho_140" data-name="Caminho 140" d="M709.79,317.312a1.483,1.483,0,0,0-.248,2.056,5.315,5.315,0,0,0,1.89,1.523,1.145,1.145,0,0,0,.67.218.987.987,0,0,0,.479-.242,16.531,16.531,0,0,0,1.43-1.255,3.017,3.017,0,0,0,1.174-2.322c-.115-1.014-1.117-1.777-1.521-2.737-.34-.8-.238-1.7-.536-2.526s-1.339-1.58-2.118-1.15a4.272,4.272,0,0,0-.7.654,2.572,2.572,0,0,1-2.377.339c-.817-.241-1.059-1.225-2.2-1.228a1.278,1.278,0,0,1,.862,1.328,3.211,3.211,0,0,1-1.607.1c-.55-.009-1.205.3-1.11.794.083.4.663.7.577,1.1a9.074,9.074,0,0,1-3.233.991c-.2.023,1.231,1.216,1.394,1.295a19.256,19.256,0,0,0,1.951.716A8.863,8.863,0,0,0,709.79,317.312Z" transform="translate(-627.132 -285.302)" opacity="0.1"/>
    <path id="Caminho_141" data-name="Caminho 141" d="M709.79,316.422a1.483,1.483,0,0,0-.248,2.056,5.314,5.314,0,0,0,1.89,1.523,1.145,1.145,0,0,0,.67.218.987.987,0,0,0,.479-.242,16.541,16.541,0,0,0,1.43-1.255,3.017,3.017,0,0,0,1.174-2.322c-.115-1.014-1.117-1.777-1.521-2.737-.34-.8-.238-1.7-.536-2.526s-1.339-1.58-2.118-1.15a4.268,4.268,0,0,0-.7.654,2.572,2.572,0,0,1-2.377.339c-.817-.241-1.059-1.225-2.2-1.228a1.278,1.278,0,0,1,.862,1.328,3.211,3.211,0,0,1-1.607.1c-.55-.009-1.205.3-1.11.794.083.4.663.7.577,1.1a9.074,9.074,0,0,1-3.233.991c-.2.023,1.231,1.216,1.394,1.295a19.249,19.249,0,0,0,1.951.716A8.874,8.874,0,0,0,709.79,316.422Z" transform="translate(-627.132 -284.531)" fill="#916168"/>
    <path id="Caminho_142" data-name="Caminho 142" d="M748.029,680.89a2.613,2.613,0,0,1,.192,1.394c-.355,2.842-5.564,4.735-6.985,5.089a1.883,1.883,0,0,1-1.906-.777,1.845,1.845,0,0,0,2.025,1.014c1.421-.355,6.63-2.25,6.985-5.089A2.6,2.6,0,0,0,748.029,680.89Z" transform="translate(-660.155 -605.971)" fill="#fff" opacity="0.1"/>
    <path id="Caminho_143" data-name="Caminho 143" d="M277.345,364.883h0c-.106-.238-.655-.7-3.3-.8-1.813-.068-2.431-1.026-2.6-1.96a2.717,2.717,0,0,0,1.215-.333s-.008-.043-.021-.119l.021-.016a12.544,12.544,0,0,1-.181-2.041,7.851,7.851,0,0,1,.185-1.741,5.134,5.134,0,0,0,.092-1.148,41.773,41.773,0,0,0-.785-6.278l-.11-3.325a2.31,2.31,0,0,0-1.257-2,1.892,1.892,0,0,0-.85-.212s-4.2-.662-7.975-1.022c-.268-.216-1.212-.8-3.376-.463l-1.245-3.645a1.034,1.034,0,0,1-.021-.134c.044-.463.354-1.161,1.8-1.205l.3.268s.054-.106.143-.268c1.789-.02,11.535-.119,12.037,0a31.012,31.012,0,0,0,5.537-1.079c1.883-1.836-5.537-.945-5.537-.945a38.566,38.566,0,0,1-5.5-.22c1.2-1.793,2.321-7.879,2.321-7.879s4.285-2.16,3.045-3.375-4.983,2.7-4.983,2.7-1.523,4.455-2.215,5.805c-.268.536-.615.645-.924.584.141-.112.232-.179.232-.179s-3.045-2.431-3.322-3.375a2.255,2.255,0,0,0-.2-.443,3.786,3.786,0,0,0-1.026-2.259,2.319,2.319,0,0,0-.345-.3c-.169-.121-.36-.225-.52-.356h0c.09-.412.194-.841.3-1.256a4.5,4.5,0,0,0,4.017-4.419,4.358,4.358,0,0,0-.122-1.019,1.963,1.963,0,0,0,1.741-.838,2.3,2.3,0,0,0,.059-2.325,2.877,2.877,0,0,0-.613-.774,3.628,3.628,0,0,0-1.406-.878,3.957,3.957,0,0,1-1.331-.566,5.9,5.9,0,0,1-.443-.67,3.427,3.427,0,0,0-.536-.624,4.9,4.9,0,0,0-2.578-1.3,13.785,13.785,0,0,0-3.578-.066c-.446.031-.97.11-1.17.5a2.374,2.374,0,0,0-.072.967c-.063,1.035-1.247,1.607-2.277,1.857s-2.258.467-2.755,1.375a4.29,4.29,0,0,0,.011,2.733,6.686,6.686,0,0,1-1.008,4.632,19.144,19.144,0,0,0-1.394,2.052,3.912,3.912,0,0,0-.26,2.66,1.873,1.873,0,0,1,.115.79,1.378,1.378,0,0,1-.313.588,7.1,7.1,0,0,1-5.049,2.615,1.446,1.446,0,0,0,.461.7,3.328,3.328,0,0,0,.956.66,14.436,14.436,0,0,0,2.933,1.091,5.11,5.11,0,0,0,2.092.178,2.192,2.192,0,0,0,1.658-1.145c.166-.364.19-.777.337-1.148.293-.742,1.02-1.223,1.512-1.859a46.482,46.482,0,0,0-.234,4.933v1.411a10.445,10.445,0,0,1-1.287,5.466,1.387,1.387,0,0,0-.173.8.881.881,0,0,0,.3.818,7.931,7.931,0,0,0-.117,1.4A4.153,4.153,0,0,0,251.337,351l5.4-.268s7.613-1.485,9.689-.4a.766.766,0,0,1,.607.747,1.719,1.719,0,0,1-.052.333,5.243,5.243,0,0,0-.066,1.062c-.009,2.277.481,7.443.481,7.443V362.1a3.444,3.444,0,0,0-.716,1.855v.038a.116.116,0,0,0,.008.05c.008.016,0,.029.009.044a.129.129,0,0,1,.012.043.328.328,0,0,0,.017.047c.007.015.009.024.015.036s.017.035.027.051l.016.028a.643.643,0,0,0,.054.074,11.609,11.609,0,0,0,5.26,2.3c1.177-.067,5.121.134,5.26-1.62A.213.213,0,0,0,277.345,364.883Z" transform="translate(-227.094 -286.735)" fill="url(#linear-gradient-2)"/>
    <path id="Caminho_144" data-name="Caminho 144" d="M442.742,671.885s-1.607,2.009-.937,2.812a11.027,11.027,0,0,0,5.089,2.276c1.138-.067,4.955.134,5.089-1.607,0,0,.268-.8-3.214-.937s-2.41-3.75-2.41-3.75Z" transform="translate(-402.33 -597.128)" fill="#594c76"/>
    <path id="Caminho_145" data-name="Caminho 145" d="M305.2,549.1s-1.607,5.49,3.214,6.428l5.223-.268s7.365-1.473,9.374-.4c0,0,.8.134.536,1.205s.4,8.3.4,8.3v2.41s4.553,0,5.089-.536a11.193,11.193,0,0,1,0-3.883c.4-1.741-.67-7.231-.67-7.231l-.106-3.3a2.3,2.3,0,0,0-1.213-1.982,1.794,1.794,0,0,0-.822-.209s-9.106-1.473-12.32-1.205S305.2,549.1,305.2,549.1Z" transform="translate(-283.935 -491.221)" opacity="0.1"/>
    <path id="Caminho_146" data-name="Caminho 146" d="M305.2,548.1s-1.607,5.49,3.214,6.428l5.223-.268s7.365-1.473,9.374-.4c0,0,.8.134.536,1.205s.4,8.3.4,8.3v2.41s4.553,0,5.089-.536a11.193,11.193,0,0,1,0-3.883c.4-1.741-.67-7.231-.67-7.231l-.106-3.3a2.3,2.3,0,0,0-1.213-1.982,1.794,1.794,0,0,0-.822-.209s-9.106-1.473-12.32-1.205S305.2,548.1,305.2,548.1Z" transform="translate(-283.935 -490.354)" fill="#8b9cd1"/>
    <path id="Caminho_147" data-name="Caminho 147" d="M402.931,415.616s1.071,1.339,1.741,0,2.143-5.758,2.143-5.758,3.616-3.883,4.821-2.678-2.946,3.348-2.946,3.348-1.473,8.169-2.812,8.3a25.413,25.413,0,0,1-3.348,0l-.67-1.473Z" transform="translate(-367.876 -368.713)" fill="#f8bdc5"/>
    <path id="Caminho_148" data-name="Caminho 148" d="M402.931,415.616s1.071,1.339,1.741,0,2.143-5.758,2.143-5.758,3.616-3.883,4.821-2.678-2.946,3.348-2.946,3.348-1.473,8.169-2.812,8.3a25.413,25.413,0,0,1-3.348,0l-.67-1.473Z" transform="translate(-367.876 -368.713)" opacity="0.05"/>
    <path id="Caminho_149" data-name="Caminho 149" d="M358.27,421.68s2.41,2.812,2.678,3.75,3.214,3.348,3.214,3.348-2.143,1.607-1.741,2.41-2.812-2.678-2.812-2.678l-3.75-5.49Z" transform="translate(-328.036 -381.473)" fill="#1a1a1a"/>
    <path id="Caminho_150" data-name="Caminho 150" d="M358.27,421.68s2.41,2.812,2.678,3.75,3.214,3.348,3.214,3.348-2.143,1.607-1.741,2.41-2.812-2.678-2.812-2.678l-3.75-5.49Z" transform="translate(-328.036 -381.473)" fill="#292929" opacity="0.1"/>
    <path id="Caminho_151" data-name="Caminho 151" d="M346,389.993a29.943,29.943,0,0,0-1.205,5.357c0,1.473-5.089-.4-4.955-1.205s2.946-3.75,3.08-4.955S346,389.993,346,389.993Z" transform="translate(-314.162 -352.999)" fill="#f8bdc5"/>
    <path id="Caminho_152" data-name="Caminho 152" d="M310.539,417.15s-4.687-1.205-5.357,5.624.536,7.633-1.473,11.784,13.659.536,13.659.536-.8-.937-3.348-.536l-1.205-3.616s-.4-1.607,1.875-1.607,1.205-4.687,1.205-4.687-1.205-4.017-1.875-4.419S312.146,417.417,310.539,417.15Z" transform="translate(-282.716 -377.478)" opacity="0.1"/>
    <path id="Caminho_153" data-name="Caminho 153" d="M310.539,415.15s-4.687-1.205-5.357,5.624.536,7.633-1.473,11.784,13.659.536,13.659.536-.8-.937-3.348-.536l-1.205-3.616s-.4-1.607,1.875-1.607,1.205-4.687,1.205-4.687-1.205-4.017-1.875-4.419S312.146,415.417,310.539,415.15Z" transform="translate(-282.716 -375.746)" fill="#292929"/>
    <path id="Caminho_154" data-name="Caminho 154" d="M386.53,487.68s9.776,1.071,11.383.8c0,0,7.178-.884,5.357.937a29.132,29.132,0,0,1-5.357,1.071c-.536-.134-11.918,0-11.918,0l-.134-1.339Z" transform="translate(-354.019 -438.634)" fill="#f8bdc5"/>
    <path id="Caminho_155" data-name="Caminho 155" d="M332.291,429.18l7.1,6.428s1.339-2.678,1.741-2.678-4.821-7.9-4.821-7.9-1.339-1.607-2.143-.8S330.952,424.493,332.291,429.18Z" transform="translate(-307.28 -383.482)" opacity="0.1"/>
    <path id="Caminho_156" data-name="Caminho 156" d="M331.291,427.18l7.1,6.428s1.339-2.678,1.741-2.678-4.821-7.9-4.821-7.9-1.339-1.607-2.143-.8S329.952,422.493,331.291,427.18Z" transform="translate(-306.414 -381.75)" fill="#292929"/>
    <circle id="Elipse_25" data-name="Elipse 25" cx="4.419" cy="4.419" r="4.419" transform="translate(26.217 30.566)" fill="#f8bdc5"/>
    <path id="Caminho_157" data-name="Caminho 157" d="M266.485,323.79a1.826,1.826,0,0,0,2.11-.733,2.329,2.329,0,0,0,.056-2.306,3.265,3.265,0,0,0-1.82-1.505,3.515,3.515,0,0,1-1.327-.595,3.911,3.911,0,0,1-.524-.761,4.38,4.38,0,0,0-2.875-1.777,13.073,13.073,0,0,0-3.462-.066c-.431.031-.937.108-1.133.494a2.4,2.4,0,0,0-.07.959c-.06,1.027-1.205,1.6-2.206,1.843s-2.16.478-2.647,1.383a4.394,4.394,0,0,0,.011,2.712,6.768,6.768,0,0,1-.975,4.584,19.127,19.127,0,0,0-1.348,2.035,3.969,3.969,0,0,0-.252,2.638,1.908,1.908,0,0,1,.112.783,1.378,1.378,0,0,1-.3.583,6.813,6.813,0,0,1-4.884,2.6,2.152,2.152,0,0,0,1.237,1.205,13.751,13.751,0,0,0,2.836,1.082,4.831,4.831,0,0,0,2.023.177,2.134,2.134,0,0,0,1.607-1.136c.161-.362.185-.77.327-1.14.32-.829,1.173-1.33,1.631-2.092a3.215,3.215,0,0,0,.719-1.655,3.164,3.164,0,0,1,1.047-2.243,2.525,2.525,0,0,1,2.544-.021c.8.4,1.3.242,1.971.826a16.337,16.337,0,0,0,3.912,2.52c-.134-1.168-.35-2.471-1.3-3.166-.268-.2-.607-.352-.749-.658-.226-.486.161-1.079-.015-1.587s-.842-.7-1.138-1.156a1.294,1.294,0,0,1,.052-1.324,3.571,3.571,0,0,1,.979-.98q.494-.374,1-.73a3.578,3.578,0,0,0,.814-.71c.134-.183.222-.585.408-.715C265.33,322.837,266.051,323.619,266.485,323.79Z" transform="translate(-231.979 -289.915)" opacity="0.1"/>
    <path id="Caminho_158" data-name="Caminho 158" d="M265.485,322.79a1.826,1.826,0,0,0,2.11-.733,2.329,2.329,0,0,0,.056-2.306,3.265,3.265,0,0,0-1.82-1.505,3.515,3.515,0,0,1-1.327-.595,3.912,3.912,0,0,1-.524-.761,4.38,4.38,0,0,0-2.875-1.777,13.073,13.073,0,0,0-3.462-.066c-.431.031-.937.108-1.133.494a2.406,2.406,0,0,0-.07.959c-.06,1.027-1.205,1.6-2.206,1.843s-2.16.478-2.647,1.383a4.394,4.394,0,0,0,.011,2.712,6.768,6.768,0,0,1-.975,4.584,19.125,19.125,0,0,0-1.348,2.035,3.969,3.969,0,0,0-.252,2.638,1.908,1.908,0,0,1,.112.783,1.378,1.378,0,0,1-.3.583,6.813,6.813,0,0,1-4.884,2.6,2.152,2.152,0,0,0,1.237,1.205,13.751,13.751,0,0,0,2.836,1.082,4.831,4.831,0,0,0,2.023.177,2.134,2.134,0,0,0,1.607-1.136c.161-.362.185-.77.327-1.14.32-.829,1.173-1.33,1.631-2.092a3.215,3.215,0,0,0,.719-1.655,3.164,3.164,0,0,1,1.047-2.243,2.525,2.525,0,0,1,2.544-.021c.8.4,1.3.242,1.971.826a16.337,16.337,0,0,0,3.912,2.52c-.134-1.168-.35-2.471-1.3-3.166-.268-.2-.607-.352-.749-.658-.226-.486.161-1.079-.015-1.587s-.842-.7-1.138-1.156a1.294,1.294,0,0,1,.052-1.324,3.57,3.57,0,0,1,.979-.98q.494-.374,1-.73a3.578,3.578,0,0,0,.814-.71c.134-.183.222-.585.408-.715C264.33,321.837,265.051,322.619,265.485,322.79Z" transform="translate(-231.113 -289.049)" fill="#916168"/>
    <g id="Grupo_15" data-name="Grupo 15" transform="translate(39.306 73.552)" opacity="0.1">
      <path id="Caminho_159" data-name="Caminho 159" d="M475.708,671.735a4.629,4.629,0,0,1,.153-1.055l-.067.023A4.662,4.662,0,0,0,475.708,671.735Z" transform="translate(-471.14 -670.68)" fill="#fff"/>
      <path id="Caminho_160" data-name="Caminho 160" d="M446.863,698.5a11.027,11.027,0,0,1-5.089-2.276.714.714,0,0,1-.155-.38.841.841,0,0,0,.155.648,11.027,11.027,0,0,0,5.089,2.277c1.138-.067,4.955.134,5.089-1.607a.217.217,0,0,0-.019-.142C451.627,698.62,447.974,698.431,446.863,698.5Z" transform="translate(-441.607 -692.471)" fill="#fff"/>
    </g>
    <rect id="Retângulo_24" data-name="Retângulo 24" width="0.134" height="5.49" transform="translate(49.852 39.605)" fill="#ffd77c" stroke="#ffab50" stroke-width="0.25"/>
    <rect id="Retângulo_25" data-name="Retângulo 25" width="0.134" height="5.49" transform="translate(49.986 39.605)" fill="#ffd77c" stroke="#ffab50" stroke-width="0.25"/>
    <rect id="Retângulo_26" data-name="Retângulo 26" width="0.134" height="5.49" transform="translate(50.12 39.605)" fill="#ffd77c" stroke="#ffab50" stroke-width="0.25"/>
    <rect id="Retângulo_27" data-name="Retângulo 27" width="0.134" height="5.49" transform="translate(50.254 39.605)" fill="#ffd77c" stroke="#ffab50" stroke-width="0.25"/>
    <rect id="Retângulo_28" data-name="Retângulo 28" width="0.134" height="5.49" transform="translate(50.388 39.605)" fill="#ffd77c" stroke="#ffab50" stroke-width="0.25"/>
    <rect id="Retângulo_29" data-name="Retângulo 29" width="0.134" height="5.49" transform="translate(50.522 39.605)" fill="#ffd77c" stroke="#ffab50" stroke-width="0.25"/>
    <rect id="Retângulo_30" data-name="Retângulo 30" width="0.134" height="5.49" transform="translate(50.656 39.605)" fill="#ffd77c" stroke="#ffab50" stroke-width="0.25"/>
  </g>
</svg>
