<svg xmlns="http://www.w3.org/2000/svg" width="161.139" height="88" viewBox="0 0 161.139 88">
  <g id="Ilustração_Beneficio_1" data-name="Ilustração Beneficio 1" transform="translate(-0.001 0)">
    <path id="Caminho_3" data-name="Caminho 3" d="M169.477,642.174q22.557-.266,45.112.305a14.893,14.893,0,0,1,3.778.417c1.142.343,2.021,1.077,1.709,1.783q-8.8.26-17.628.161c-1.281.627-2.687,1.572-1.9,2.419.545.586,1.889.76,3.065.761,2.13,0,4.268-.347,6.366-.142s4.192,1.309,3.577,2.454c-.467.87-2.238,1.3-3.849,1.378s-3.262-.083-4.837.123a35.072,35.072,0,0,0-4.195,1.06,39.014,39.014,0,0,1-7.07.881c-18.507,1.131-37.168,1.122-55.785,1.111-7.537,0-15.176-.016-22.454-1.116-4.149-.627-8.124-1.6-12.325-2.106a125.646,125.646,0,0,0-15.335-.5q-13.513.048-27-.521c-.669-.028-1.491-.124-1.671-.487-.211-.424.645-.755,1.368-.924A79.424,79.424,0,0,1,72.86,647.37a36.96,36.96,0,0,0,6.269-.717c1.954-.492,3.662-1.523,3.643-2.727-.006-.367-.16-.76.146-1.084a3.826,3.826,0,0,1,2.271-.576c9.571-.52,19.2-.737,28.81-.65,3.382.031,6.778.1,10.136-.129,2.752-.187,5.447-.57,8.158-.892,3.64-.432,19.481-2.669,21.792-.854,1.73,1.359-1.842,1.652,2.8,2.207A99.473,99.473,0,0,0,169.477,642.174Z" transform="translate(-59 -566.888)" fill="#f2f2f2"/>
    <path id="Caminho_4" data-name="Caminho 4" d="M392.036,566.482s-5.577,11.035-.831,11.035,64.547.237,66.208-2.848c1.164-2.161.522-9.856.034-14.269a3.374,3.374,0,0,0-3.541-3c-12.933.714-61.25,3.359-61.04,3.029.415-.653.119-.475.119-.475S391.086,566.007,392.036,566.482Z" transform="translate(-340.101 -497.402)" fill="#3f3d56"/>
    <path id="Caminho_5" data-name="Caminho 5" d="M474.28,560.4a3.374,3.374,0,0,0-3.541-3c-12.933.714-61.25,3.359-61.04,3.029.415-.653.119-.475.119-.475s-.424,1.351-.771,2.826c.049,0,.086.042-.074.323q-.021.1-.042.191c1.935.191,48.342-2.35,60.978-3.047a3.375,3.375,0,0,1,3.541,3,71.643,71.643,0,0,1,.538,11.662.709.709,0,0,0,.259-.24C475.41,572.508,474.769,564.814,474.28,560.4Z" transform="translate(-356.816 -497.402)" opacity="0.1"/>
    <path id="Caminho_6" data-name="Caminho 6" d="M382.438,464.339c-.618-.189-1.4-.434-1.33-.833.037-.212.321-.377.527-.555.4-.343.5-.825.077-1.156a1.761,1.761,0,0,0-1.826-.025c-.193.18-.181.406-.281.609-.311.635-1.57.913-2.639,1.16s-2.265.705-2.165,1.362c.11.716,1.759,1.352,1.1,1.962-.241.221-.747.345-.855.6-.076.178.076.359.224.522l1.05,1.157c.418.46.848.961.708,1.474-.277,1.016-2.532,1.4-4.319,1.29a3.574,3.574,0,0,0-1.873.176.613.613,0,0,0-.231.825,3.4,3.4,0,0,0,2.459,1.633c-1.361.268-1.895,1.4-.956,2.023a2.8,2.8,0,0,1-1.666.048c-.465.428-.191,1.015.4,1.389a7.9,7.9,0,0,0,2.232.785l-.756.707a3.163,3.163,0,0,0,2.527.007,5.423,5.423,0,0,1,2.555-.492c.838.133,1.471.691,2.324.6a1.5,1.5,0,0,0,1.181-.866l.875-1.559c1.246.195,2.556-.659,2.056-1.34,1.395.15,2.767-.756,2.309-1.524a4.463,4.463,0,0,1,1.521,1.936,1.849,1.849,0,0,0,.5.906,1.645,1.645,0,0,0,1.439.26c-.254.493-.46,1.068.062,1.487s2.03.3,1.964-.213a7.25,7.25,0,0,0,2.686.69c1,.026,2.086-.353,2.177-.921a13.915,13.915,0,0,0,4.35.7c.126-.38,1-.5,1.66-.41a13.677,13.677,0,0,0,1.941.316c.676,0,1.4-.407,1.057-.739a13.976,13.976,0,0,0,4.332.219c1.365-.145,2.658-.489,4.04-.563a9.649,9.649,0,0,1,4.112.649,2.377,2.377,0,0,0,1.514.28,1.807,1.807,0,0,0,.611-.412c.825-.626,2.513-.506,3.815-.26a7.839,7.839,0,0,0,3.958.107c.431-.164.748-.418,1.206-.556,1.64-.494,3.6.771,5.345.407a10.6,10.6,0,0,1,1.628-.437c1.065-.062,1.769.66,2.805.815,1.075.161,2.24-.493,1.978-1.11a9.648,9.648,0,0,0,3.051-.424l-.488-.878c1.216-.02,2.11-.891,1.547-1.507a3.116,3.116,0,0,0,2.434-1.578c.251-.721-.222-1.509-1.193-1.99a5.584,5.584,0,0,1-1.653-.875c-.236-.282-.2-.609-.293-.917a2.778,2.778,0,0,0-2.2-1.5,11.849,11.849,0,0,1-1.465-.295c-.442-.156-.762-.493-.506-.751a5.182,5.182,0,0,1,.563-.342c.682-.5-.487-1.141-1.486-1.424l2.384-.078.512-2.321c-.943.767-3.39.606-4-.264a2.261,2.261,0,0,0,2.168-.527,1.667,1.667,0,0,0,.182-1.491.723.723,0,0,0-.4-.592c-.233-.111-.605-.158-.682-.326s.224-.323.269-.5c.086-.337-.688-.485-1.21-.648-1.233-.384-1.829-1.463-3.232-1.428a1.743,1.743,0,0,0-1.781,1.894,1.753,1.753,0,0,1-1.865,1.847,3.816,3.816,0,0,1-1.485-.4l-3.989-1.72a9.55,9.55,0,0,0-1.638-.587,12.773,12.773,0,0,0-2.562-.23l-5.58-.127a2.6,2.6,0,0,0-.846.073,1.585,1.585,0,0,0-.612.456,4.579,4.579,0,0,1-3.922.613c-.35-.107-.663-.253-1.033-.334-1.167-.253-2.391.215-3.6.384-1.987.277-4.456-.2-5.889.635-.478.278-.731.659-1.173.955a2.175,2.175,0,0,1-1.8.274,2.1,2.1,0,0,1-.234,1.615,2.536,2.536,0,0,1-2.242.787c-.493-.13-.454-.544-.221-.825s.59-.567.474-.87-.643-.476-1.037-.685-.657-.607-.239-.8c-.282-.363-1.3-.319-1.743-.014a1.381,1.381,0,0,0-.539,1.129,1.258,1.258,0,0,1-.672,1.095c-.881.452-2.573.217-3.157.806-.186.187-.2.412-.3.619-.474.92-2.521,1.159-4.194,1.234a2.053,2.053,0,0,0-.023.581C383.806,464.971,382.853,464.467,382.438,464.339Z" transform="translate(-323.857 -411.797)" fill="#61ab43"/>
    <path id="Caminho_7" data-name="Caminho 7" d="M839.386,496.288a1.667,1.667,0,0,1-.182,1.491,1.145,1.145,0,0,1-.187.177l1.511-.049.512-2.321a2.915,2.915,0,0,1-1.709.491A1.489,1.489,0,0,1,839.386,496.288Z" transform="translate(-722.85 -444.796)" opacity="0.1"/>
    <path id="Caminho_8" data-name="Caminho 8" d="M828.51,513.75c-.06-.314-.577-.632-1.156-.86a2.354,2.354,0,0,1-1.634.143A3.256,3.256,0,0,0,828.51,513.75Z" transform="translate(-711.533 -459.524)" opacity="0.1"/>
    <path id="Caminho_9" data-name="Caminho 9" d="M835.577,530.021l-.039.177-2.384.078c1,.283,2.168.92,1.486,1.424a5.2,5.2,0,0,0-.563.342c-.255.258.064.6.506.751a11.851,11.851,0,0,0,1.465.295,2.779,2.779,0,0,1,2.2,1.5c.092.308.057.635.293.917a5.584,5.584,0,0,0,1.654.875c.055.027.108.056.16.085a2.166,2.166,0,0,0,1.033-1.08c.251-.721-.222-1.509-1.193-1.99a5.587,5.587,0,0,1-1.654-.875c-.236-.282-.2-.609-.293-.917a2.779,2.779,0,0,0-2.2-1.5C835.893,530.071,835.735,530.046,835.577,530.021Z" transform="translate(-717.86 -474.104)" opacity="0.1"/>
    <path id="Caminho_10" data-name="Caminho 10" d="M371.719,591.547a1.817,1.817,0,0,1,1.341-.881,4.536,4.536,0,0,1-1.8-.81,2.712,2.712,0,0,1-.825-.1c-.465.428-.191,1.015.4,1.389A4.275,4.275,0,0,0,371.719,591.547Z" transform="translate(-323.856 -524.94)" opacity="0.1"/>
    <path id="Caminho_11" data-name="Caminho 11" d="M402.163,466.835a7.937,7.937,0,0,1,1.041-.31c1.069-.247,2.328-.525,2.639-1.16.1-.2.088-.429.281-.609a1.761,1.761,0,0,1,1.826.025c.426.331.319.813-.077,1.156-.206.178-.489.343-.527.555-.07.4.712.644,1.33.833a2.629,2.629,0,0,1,.8.425c.005-.042.01-.085.014-.126,1.673-.075,3.72-.313,4.194-1.234.106-.206.117-.432.3-.619.584-.588,2.276-.354,3.157-.806a1.258,1.258,0,0,0,.672-1.095,1.381,1.381,0,0,1,.539-1.129c.446-.3,1.461-.348,1.743.014-.419.193-.156.591.239.8s.922.384,1.037.685-.241.589-.474.87-.272.694.221.825a2.536,2.536,0,0,0,2.242-.787,2.1,2.1,0,0,0,.234-1.615,2.175,2.175,0,0,0,1.8-.274c.443-.3.7-.677,1.173-.955,1.433-.835,3.9-.358,5.889-.635,1.212-.169,2.436-.637,3.6-.384.37.08.684.227,1.033.334a4.579,4.579,0,0,0,3.922-.613,1.585,1.585,0,0,1,.612-.456,2.6,2.6,0,0,1,.846-.073l5.58.127a12.769,12.769,0,0,1,2.562.23,9.547,9.547,0,0,1,1.638.587l3.989,1.72a3.817,3.817,0,0,0,1.485.4,1.753,1.753,0,0,0,1.865-1.847,1.743,1.743,0,0,1,1.781-1.894c1.4-.035,2,1.044,3.232,1.428.522.163,1.3.311,1.21.648-.04.156-.283.294-.281.443a1.836,1.836,0,0,0,.909-.521,1.667,1.667,0,0,0,.182-1.491.723.723,0,0,0-.4-.592c-.233-.111-.605-.158-.682-.326s.224-.323.269-.5c.086-.337-.688-.485-1.21-.648-1.233-.384-1.829-1.463-3.232-1.428a1.743,1.743,0,0,0-1.781,1.894,1.753,1.753,0,0,1-1.865,1.847,3.817,3.817,0,0,1-1.485-.4l-3.989-1.72a9.55,9.55,0,0,0-1.638-.587,12.773,12.773,0,0,0-2.562-.23l-5.58-.127a2.6,2.6,0,0,0-.846.073,1.586,1.586,0,0,0-.612.456,4.579,4.579,0,0,1-3.922.613c-.35-.107-.663-.253-1.033-.334-1.167-.253-2.391.215-3.6.384-1.987.277-4.456-.2-5.889.635-.478.278-.731.659-1.173.955a2.175,2.175,0,0,1-1.8.274,2.1,2.1,0,0,1-.234,1.615,2.536,2.536,0,0,1-2.242.787c-.493-.13-.454-.544-.221-.825s.59-.567.474-.87-.643-.476-1.037-.685-.657-.607-.239-.8c-.282-.363-1.3-.319-1.743-.014a1.381,1.381,0,0,0-.539,1.129,1.258,1.258,0,0,1-.672,1.095c-.881.452-2.573.217-3.157.806-.186.187-.2.412-.3.619-.474.92-2.521,1.159-4.194,1.234,0,.042-.009.084-.014.126a2.627,2.627,0,0,0-.8-.425c-.618-.189-1.4-.434-1.33-.833.037-.212.321-.377.527-.555.4-.343.5-.825.077-1.156a1.761,1.761,0,0,0-1.826-.025c-.193.18-.181.406-.281.609-.311.635-1.57.913-2.639,1.16s-2.265.705-2.165,1.362C401.147,465.607,402.744,466.233,402.163,466.835Z" transform="translate(-350.094 -411.797)" opacity="0.1"/>
    <path id="Caminho_12" data-name="Caminho 12" d="M374.936,558.887a2.345,2.345,0,0,0-.828.324c.16.007.32.018.473.027,1.787.114,4.042-.274,4.319-1.29.14-.512-.291-1.013-.708-1.474l-.5-.555a8.657,8.657,0,0,1-3.107.335,3.574,3.574,0,0,0-1.873.176.613.613,0,0,0-.231.825A3.4,3.4,0,0,0,374.936,558.887Z" transform="translate(-325.732 -496.145)" opacity="0.1"/>
    <ellipse id="Elipse_1" data-name="Elipse 1" cx="17.798" cy="11.747" rx="17.798" ry="11.747" transform="translate(67.805 34.604)" fill="#ea565c"/>
    <path id="Caminho_13" data-name="Caminho 13" d="M558.112,422.471s-8.068.831-5.7-2.61,5.339-4.627,6.763-3.678,2.017,3.56,1.78,3.56-3.678-2.017-4.865-.475S558.112,422.471,558.112,422.471Z" transform="translate(-478.561 -376.95)" fill="#fff" opacity="0.2"/>
    <path id="Caminho_14" data-name="Caminho 14" d="M611.477,462.467s6.663,4.626,2.621,5.69-7.065.033-7.527-1.615.788-4.015.968-3.86,1.477,3.926,3.382,3.529S611.477,462.467,611.477,462.467Z" transform="translate(-524.934 -416.61)" fill="#fff" opacity="0.2"/>
    <path id="Caminho_15" data-name="Caminho 15" d="M650.543,409.781s.526-8.094,3.523-5.181,3.673,6.036,2.5,7.282-3.846,1.4-3.806,1.162,2.6-3.291,1.279-4.718S650.543,409.781,650.543,409.781Z" transform="translate(-562.445 -366.823)" fill="#fff" opacity="0.2"/>
    <ellipse id="Elipse_2" data-name="Elipse 2" cx="17.798" cy="11.747" rx="17.798" ry="11.747" transform="translate(46.329 33.655)" fill="#ea565c"/>
    <path id="Caminho_16" data-name="Caminho 16" d="M413.907,416.1s-8.068.831-5.7-2.61,5.339-4.627,6.763-3.678,2.017,3.56,1.78,3.56-3.678-2.017-4.865-.475S413.907,416.1,413.907,416.1Z" transform="translate(-355.832 -371.526)" fill="#fff" opacity="0.2"/>
    <path id="Caminho_17" data-name="Caminho 17" d="M467.271,456.093s6.663,4.626,2.621,5.691-7.065.033-7.527-1.615.788-4.015.968-3.86,1.477,3.926,3.382,3.529S467.271,456.093,467.271,456.093Z" transform="translate(-402.205 -411.185)" fill="#fff" opacity="0.2"/>
    <path id="Caminho_18" data-name="Caminho 18" d="M506.337,403.407s.526-8.094,3.523-5.181,3.673,6.036,2.5,7.282-3.846,1.4-3.806,1.162,2.6-3.291,1.279-4.718S506.337,403.407,506.337,403.407Z" transform="translate(-439.715 -361.399)" fill="#fff" opacity="0.2"/>
    <path id="Caminho_19" data-name="Caminho 19" d="M433.71,392.286c3.877,2.155,6.341,5.381,6.341,8.988,0,6.487-7.968,11.747-17.8,11.747a24.949,24.949,0,0,1-9.2-1.69,23.8,23.8,0,0,0,11.457,2.758c9.829,0,17.8-5.259,17.8-11.747C442.3,398.078,438.861,394.344,433.71,392.286Z" transform="translate(-360.321 -356.881)" opacity="0.1"/>
    <path id="Caminho_20" data-name="Caminho 20" d="M577.916,397.863c3.877,2.155,6.341,5.381,6.341,8.988,0,6.487-7.968,11.747-17.8,11.747a24.949,24.949,0,0,1-9.2-1.69,23.8,23.8,0,0,0,11.457,2.758c9.83,0,17.8-5.259,17.8-11.747C586.511,403.655,583.067,399.921,577.916,397.863Z" transform="translate(-483.051 -361.628)" opacity="0.1"/>
    <path id="Caminho_21" data-name="Caminho 21" d="M407.6,380.021s15.306-16.374,52.8-9.611c29.639,5.346,5.3,14.548-6.2,18.169a41.312,41.312,0,0,1-10.285,1.852C430.941,391.1,398.313,391.7,407.6,380.021Z" transform="translate(-354.285 -336.87)" fill="#714b4f"/>
    <path id="Caminho_22" data-name="Caminho 22" d="M454.2,421.741a41.312,41.312,0,0,1-10.285,1.852c-10.509.541-33.916,1.035-37.492-5-4.516,9.761,25.247,9.194,37.492,8.563A41.311,41.311,0,0,0,454.2,425.3c8.428-2.654,23.754-8.307,19.666-13.241C471.116,415.932,460.645,419.712,454.2,421.741Z" transform="translate(-354.29 -373.71)" opacity="0.1"/>
    <line id="Linha_3" data-name="Linha 3" x2="4.153" y2="8.187" transform="translate(85.999 33.6)" fill="none" stroke="#000" stroke-width="2" opacity="0.1"/>
    <line id="Linha_4" data-name="Linha 4" x2="3.56" y2="6.882" transform="translate(73.184 36.566)" fill="none" stroke="#000" stroke-width="2" opacity="0.1"/>
    <line id="Linha_5" data-name="Linha 5" x2="5.577" y2="8.187" transform="translate(93.474 33.6)" fill="none" stroke="#000" stroke-width="2" opacity="0.1"/>
    <line id="Linha_6" data-name="Linha 6" y1="4.746" x2="37.375" transform="translate(73.184 39.414)" fill="none" stroke="#000" stroke-width="2" opacity="0.1"/>
    <line id="Linha_7" data-name="Linha 7" x2="2.61" y2="3.678" transform="translate(109.136 35.142)" fill="none" stroke="#000" stroke-width="2" opacity="0.1"/>
    <line id="Linha_8" data-name="Linha 8" x2="1.661" y2="3.441" transform="translate(65.828 39.414)" fill="none" stroke="#000" stroke-width="2" opacity="0.1"/>
    <path id="Caminho_23" data-name="Caminho 23" d="M409.559,340.648s34.131-.154,34.445-.463,7.515-.472,8.924,1.535,1.879,2.934,0,3.243-63.722,31.964-63.722,31.964-3.444.309-1.722-3.088S409.559,340.648,409.559,340.648Z" transform="translate(-338.151 -312.382)" fill="#f6c964"/>
    <path id="Caminho_24" data-name="Caminho 24" d="M477.378,428.991c0,1.278-6.162,4.39-13.764,4.39s-13.764-3.112-13.764-4.39,6.162-1.78,13.764-1.78S477.378,427.713,477.378,428.991Z" transform="translate(-391.641 -386.605)" fill="#61ab43"/>
    <ellipse id="Elipse_3" data-name="Elipse 3" cx="13.764" cy="2.314" rx="13.764" ry="2.314" transform="translate(58.209 40.013)" fill="#61ab43"/>
    <path id="Caminho_25" data-name="Caminho 25" d="M588.918,414.649c0,1.278-6.162,4.39-13.764,4.39s-13.764-3.112-13.764-4.39,6.162-1.78,13.764-1.78S588.918,413.371,588.918,414.649Z" transform="translate(-486.57 -374.399)" fill="#61ab43"/>
    <ellipse id="Elipse_4" data-name="Elipse 4" cx="13.764" cy="2.314" rx="13.764" ry="2.314" transform="translate(74.82 37.877)" fill="#61ab43"/>
    <path id="Caminho_26" data-name="Caminho 26" d="M700.458,400.309c0,1.278-6.162,4.39-13.764,4.39s-13.764-3.112-13.764-4.39,6.162-1.78,13.764-1.78S700.458,399.031,700.458,400.309Z" transform="translate(-581.498 -362.195)" fill="#61ab43"/>
    <ellipse id="Elipse_5" data-name="Elipse 5" cx="13.764" cy="2.314" rx="13.764" ry="2.314" transform="translate(91.432 35.741)" fill="#61ab43"/>
    <path id="Caminho_27" data-name="Caminho 27" d="M404.476,260.233s-5.661-.922-2.765-5.529,3.87-9.773,5.134-10.927c1.413-1.29,30.577-23.909,53.3,1.12a33.392,33.392,0,0,1,5.794,9.047,5.283,5.283,0,0,0,.874,1.483c.922.922,1.711,3.554,0,4.871S414.678,266.75,404.476,260.233Z" transform="translate(-349.969 -221.462)" fill="#3f3d56"/>
    <path id="Caminho_28" data-name="Caminho 28" d="M589.564,284.02a2.215,2.215,0,0,1-1.185.395c-.654,0-1.185-.177-1.185-.395s.53-.395,1.185-.395A2.214,2.214,0,0,1,589.564,284.02Z" transform="translate(-508.531 -264.403)" fill="#f2f2f2"/>
    <path id="Caminho_29" data-name="Caminho 29" d="M525.919,267.225a2.215,2.215,0,0,1-1.185.395c-.654,0-1.185-.177-1.185-.395s.53-.395,1.185-.395A2.215,2.215,0,0,1,525.919,267.225Z" transform="translate(-454.365 -250.109)" fill="#f2f2f2"/>
    <path id="Caminho_30" data-name="Caminho 30" d="M699.394,288.98a2.215,2.215,0,0,1-1.249.023c-.625-.2-1.078-.523-1.013-.731s.624-.219,1.249-.023a2.215,2.215,0,0,1,1.013.731Z" transform="translate(-602.091 -268.219)" fill="#f2f2f2"/>
    <path id="Caminho_31" data-name="Caminho 31" d="M581.827,243.9a2.214,2.214,0,0,1-1.249.023c-.625-.2-1.078-.522-1.013-.731s.624-.219,1.249-.023a2.214,2.214,0,0,1,1.013.731Z" transform="translate(-502.033 -229.851)" fill="#f2f2f2"/>
    <path id="Caminho_32" data-name="Caminho 32" d="M710,259.81a2.215,2.215,0,0,1-1.249.023c-.625-.2-1.078-.522-1.013-.731s.624-.219,1.249-.023A2.214,2.214,0,0,1,710,259.81Z" transform="translate(-611.119 -243.394)" fill="#f2f2f2"/>
    <path id="Caminho_33" data-name="Caminho 33" d="M683.263,260.153a2.215,2.215,0,0,1-1.185.395c-.654,0-1.185-.177-1.185-.395s.53-.395,1.185-.395A2.214,2.214,0,0,1,683.263,260.153Z" transform="translate(-588.276 -244.09)" fill="#f2f2f2"/>
    <path id="Caminho_34" data-name="Caminho 34" d="M607.243,244.242a2.214,2.214,0,0,1-1.185.395c-.654,0-1.185-.177-1.185-.395s.53-.395,1.185-.395A2.215,2.215,0,0,1,607.243,244.242Z" transform="translate(-523.577 -230.549)" fill="#f2f2f2"/>
    <path id="Caminho_35" data-name="Caminho 35" d="M665.584,244.242a2.215,2.215,0,0,1-1.185.395c-.654,0-1.185-.177-1.185-.395s.53-.395,1.185-.395A2.215,2.215,0,0,1,665.584,244.242Z" transform="translate(-573.23 -230.549)" fill="#f2f2f2"/>
    <path id="Caminho_36" data-name="Caminho 36" d="M643.485,278.716a2.215,2.215,0,0,1-1.185.395c-.654,0-1.185-.177-1.185-.395s.53-.395,1.185-.395A2.214,2.214,0,0,1,643.485,278.716Z" transform="translate(-554.422 -259.889)" fill="#f2f2f2"/>
    <path id="Caminho_37" data-name="Caminho 37" d="M592.75,265.457a2.215,2.215,0,0,1,.621-1.083c.488-.436,1-.657,1.147-.494s-.133.648-.621,1.083A2.215,2.215,0,0,1,592.75,265.457Z" transform="translate(-513.259 -247.552)" fill="#f2f2f2"/>
    <path id="Caminho_38" data-name="Caminho 38" d="M552.971,255.734a2.214,2.214,0,0,1,.621-1.083c.488-.436,1-.657,1.147-.494s-.133.648-.621,1.083A2.215,2.215,0,0,1,552.971,255.734Z" transform="translate(-479.404 -239.277)" fill="#f2f2f2"/>
    <path id="Caminho_39" data-name="Caminho 39" d="M484.023,303.468a2.214,2.214,0,0,1,.621-1.083c.488-.436,1-.657,1.147-.494s-.133.648-.621,1.083A2.215,2.215,0,0,1,484.023,303.468Z" transform="translate(-420.725 -279.902)" fill="#f2f2f2"/>
    <path id="Caminho_40" data-name="Caminho 40" d="M636.948,250.43a2.215,2.215,0,0,1,.621-1.083c.488-.436,1-.657,1.147-.494s-.133.648-.621,1.083A2.215,2.215,0,0,1,636.948,250.43Z" transform="translate(-550.875 -234.763)" fill="#f2f2f2"/>
    <path id="Caminho_41" data-name="Caminho 41" d="M621.036,282.253a2.215,2.215,0,0,1,.621-1.083c.488-.436,1-.657,1.147-.494s-.133.648-.621,1.083A2.215,2.215,0,0,1,621.036,282.253Z" transform="translate(-537.333 -261.847)" fill="#f2f2f2"/>
    <path id="Caminho_42" data-name="Caminho 42" d="M873.469,637.975a6.538,6.538,0,0,0-2.7,1.622,5.939,5.939,0,0,1-2.614.541c-.991-.18-2.794,1.622-1.352,2.163s10.274,1.983,10.454,1.532.18-5.047.18-5.047Z" transform="translate(-746.038 -565.98)" fill="#575a89"/>
    <path id="Caminho_43" data-name="Caminho 43" d="M972.685,632.779a6.538,6.538,0,0,0-2.387,2.06,5.94,5.94,0,0,1-2.483.979c-1.008-.008-2.476,2.076-.963,2.362s10.462.2,10.562-.276-.684-5-.684-5Z" transform="translate(-831.095 -561.558)" fill="#575a89"/>
    <circle id="Elipse_6" data-name="Elipse 6" cx="4.056" cy="4.056" r="4.056" transform="translate(126.305 2.015)" fill="#ffb9b9"/>
    <path id="Caminho_44" data-name="Caminho 44" d="M932.393,199.851s.451,3.064,1.262,3.425a5.987,5.987,0,0,1,1.532,1.081l-2.253,1.081-4.416-.27a5.256,5.256,0,0,0-.27-2.974C927.616,201.2,932.393,199.851,932.393,199.851Z" transform="translate(-798.743 -193.105)" fill="#ffb9b9"/>
    <path id="Caminho_45" data-name="Caminho 45" d="M992.089,297.279a15.7,15.7,0,0,1,0,10.454c-2.073,5.137-2.974,5.948-2.974,5.948l-.631-6.759.725-.658a8.557,8.557,0,0,0,.082-3.265c-.357-1.214.184-5,.184-5Z" transform="translate(-850.058 -276.023)" fill="#ffb9b9"/>
    <path id="Caminho_46" data-name="Caminho 46" d="M895.1,355.682s-2.614,5.948-2.343,8.832,2.343,15.05,2.343,15.05-.27,15.681.541,15.681,4.686,1.442,4.686.451.811-24.784.811-24.784,4.6,10.454,5.047,11.265,3.335,13.518,4.326,13.518,4.055-.9,3.785-1.532-3.334-14.69-5.047-18.295-1.352-17.213-1.352-17.213l-2.884-6.309Z" transform="translate(-768.573 -322.89)" fill="#3f3d56"/>
    <path id="Caminho_47" data-name="Caminho 47" d="M908.364,158.776s-2.523-.18-2.7-.811-.541-1.172-.36-1.172.27-.451.27-.451.18-.09.27,0,.18-.631.18-.631.09-.27.18-.09.09.09.18-.18.541-.451.541-.451,1.712.09,1.983-.27,3.334-.09,3.965.361,3.425,2.073,2.974,3.425-2.073,4.326-2.073,4.776-.631.36-.811-.09-1.622-.991-1.622-1.262-.811-2.794-1.262-2.614-.991,1.622-1.172,1.352A12.878,12.878,0,0,1,908.364,158.776Z" transform="translate(-779.22 -154.554)" fill="#3f3d56"/>
    <path id="Caminho_48" data-name="Caminho 48" d="M917.42,227.7s-3.694-5.407-4.776-5.678-3.515-.991-3.515-.991a17.729,17.729,0,0,0-3.154.721c-.721.361-3.425.991-3.515,2.073s.721,11.446.27,12.437-1.983,10.454-1.262,10.274.18-2.523,3.335-2.614,4.867-1.983,6.038.27,4.506,3.965,4.506,3.965a21.8,21.8,0,0,1,.36-2.163c.27-1.262-.721-4.326-.721-4.326s.09-7.12.451-7.931S917.42,227.7,917.42,227.7Z" transform="translate(-775.84 -211.131)" fill="#fc0"/>
    <path id="Caminho_49" data-name="Caminho 49" d="M991.832,264.6l1.352.18a6.109,6.109,0,0,0,.27,2.343c.36.541.991,3.335.631,3.425s-3.6.631-3.6.631l-.181-4.146Z" transform="translate(-851.603 -248.212)" fill="#fc0"/>
    <path id="Caminho_50" data-name="Caminho 50" d="M865.68,286.387s-.9,5.858-1.352,6.579-2.7,10.815-2.7,10.815-3.7,5.152-1.9,5.062,3.7-4.7,3.7-4.7,5.588-10.184,5.588-11.265a65.479,65.479,0,0,1,1.352-6.489Z" transform="translate(-740.051 -266.753)" fill="#ffb9b9"/>
    <path id="Caminho_51" data-name="Caminho 51" d="M901.2,233.134l-1.622.631s-2.073,7.39-1.622,8.021,5.858-.27,5.948-.541S902.908,233.134,901.2,233.134Z" transform="translate(-772.953 -221.431)" fill="#fc0"/>
    <path id="Caminho_52" data-name="Caminho 52" d="M155.594,561.532c0,8.781,5.509,15.886,12.316,15.886" transform="translate(-141.208 -500.922)" fill="#46455b"/>
    <path id="Caminho_53" data-name="Caminho 53" d="M238.293,576.4c0-8.879,6.147-16.065,13.744-16.065" transform="translate(-211.59 -499.901)" fill="#fc0"/>
    <path id="Caminho_54" data-name="Caminho 54" d="M185.557,566.877c0,8.341,3.513,15.09,7.854,15.09" transform="translate(-166.708 -505.471)" fill="#fc0"/>
    <path id="Caminho_55" data-name="Caminho 55" d="M238.293,550.9c0-11.346,7.105-20.527,15.886-20.527" transform="translate(-211.59 -474.401)" fill="#46455b"/>
    <path id="Caminho_56" data-name="Caminho 56" d="M220.9,663.56a6.4,6.4,0,0,0,2.273-.429c.526-.375,2.687-.822,2.817-.221s2.625,2.99.653,3.006a16.7,16.7,0,0,1-5.107-.627C221.006,664.969,220.9,663.56,220.9,663.56Z" transform="translate(-196.784 -586.952)" fill="#a8a8a8"/>
    <path id="Caminho_57" data-name="Caminho 57" d="M226.674,671.088a16.7,16.7,0,0,1-5.107-.627c-.4-.244-.56-1.118-.613-1.522l-.058,0s.111,1.409.636,1.729a16.7,16.7,0,0,0,5.107.627c.569,0,.766-.207.755-.507C227.315,670.971,227.1,671.084,226.674,671.088Z" transform="translate(-196.784 -592.333)" opacity="0.2"/>
  </g>
</svg>
